<?xml version="1.0" ?><svg id="object" viewBox="0 0 32 32" xmlns="http://www.w3.org/2000/svg"><defs><style>.cls-1{fill:#ffc661;}.cls-2{fill:#e49f4e;}.cls-3{fill:#eef5fd;}.cls-4{fill:#d7e2f2;}</style></defs><title/><path class="cls-1" d="M26,11H6a1,1,0,0,1-1-1,9,9,0,0,1,9-9h4a9,9,0,0,1,9,9A1,1,0,0,1,26,11ZM7.07,9H24.93A7,7,0,0,0,18,3H14A7,7,0,0,0,7.07,9Z"/><path class="cls-2" d="M26.94,9A9,9,0,0,0,18,1H16V3h2a7,7,0,0,1,6.93,6H16v2H26a1,1,0,0,0,1-1A8.26,8.26,0,0,0,26.94,9Z"/><rect class="cls-1" height="22" rx="3" ry="3" width="30" x="1" y="9"/><path class="cls-2" d="M31,12V28a3,3,0,0,1-3,3H16V9H28a3.43,3.43,0,0,1,.56.05h0l.29.08a2.15,2.15,0,0,1,.27.1,3.17,3.17,0,0,1,.41.21,1.37,1.37,0,0,1,.2.13,3.38,3.38,0,0,1,.44.4,3.44,3.44,0,0,1,.28.36,3.9,3.9,0,0,1,.19.35l0,.06a2.62,2.62,0,0,1,.15.39v0A2.88,2.88,0,0,1,31,12Z"/><path class="cls-3" d="M28,9H4a3,3,0,0,0-3,2.61l4.8,6a6.34,6.34,0,0,0,5,2.39H21.19a6.34,6.34,0,0,0,5-2.39l4.8-6A3,3,0,0,0,28,9Z"/><path class="cls-4" d="M31,11.61l-4.8,6a6.34,6.34,0,0,1-5,2.39H16V9H28a3.43,3.43,0,0,1,.56.05h0l.29.08a2.15,2.15,0,0,1,.27.1,3.17,3.17,0,0,1,.41.21,1.37,1.37,0,0,1,.2.13,3.38,3.38,0,0,1,.44.4A3,3,0,0,1,31,11.61Z"/></svg>